PathFileType	4	(X/Y/Z)	S:\OneDrive - The University of Tokyo\ìåëÂéˆã∆\ÉoÉCÉÅÉJ\ë™íË\hirabayashi_2\Trimmed\Trimmed_BarL1Hirabayashi1.trc
DataRate	CameraRate	NumFrames	NumMarkers	Units	OrigDataRate	OrigDataStartFrame	OrigNumFrames
200.00	200.00	       24	12	mm	200.00	1	       265
Frame#	Time	BarR0			BarR50			BarR100			BarR130			BarR180			BarR230			BarL0			BarL50			BarL100			BarL130			BarL180			BarL230			
		X1	Y1	Z1	X2	Y2	Z2	X3	Y3	Z3	X4	Y4	Z4	X5	Y5	Z5	X6	Y6	Z6	X7	Y7	Z7	X8	Y8	Z8	X9	Y9	Z9	X10	Y10	Z10	X11	Y11	Z11	X12	Y12	Z12	

1	0.000	-576.28607	2755.25732	1664.34912	-605.68408	2306.24463	1662.14185	-637.81854	1851.70520	1661.84204	-661.36749	1349.19556	1661.63574	-690.46179	902.43701	1662.29114	-714.12317	454.44669	1663.80444	-1112.21021	2805.44751	1664.53577	-1138.76990	2354.21582	1648.60645	-1168.51550	1904.43176	1638.39172	-1196.30969	1404.22778	1637.49036	-1223.82849	953.34363	1648.84277	-1242.33167	507.37973	1667.06677	
2	0.005	-576.85626	2755.31470	1663.87134	-604.40601	2305.92090	1662.49133	-637.80328	1851.70288	1661.82666	-661.40625	1349.21997	1661.62939	-690.52466	902.42169	1662.27551	-714.11340	454.45575	1663.79480	-1112.20776	2805.44458	1664.55457	-1138.78479	2354.22974	1648.58252	-1168.61597	1904.49536	1638.36670	-1196.30237	1404.19800	1637.44629	-1223.82300	953.34467	1648.81995	-1242.32422	507.36816	1667.07324	
3	0.010	-576.84863	2755.33154	1663.86487	-604.43811	2305.90942	1662.49841	-637.85010	1851.72583	1661.83655	-661.42798	1349.21033	1661.63904	-690.51495	902.40515	1662.27795	-714.13458	454.45639	1663.80811	-1112.20288	2805.42725	1664.53577	-1138.79102	2354.21436	1648.57593	-1168.58960	1904.47290	1638.34973	-1196.30640	1404.18555	1637.42786	-1223.81531	953.33392	1648.78711	-1242.32861	507.39941	1667.06836	
4	0.015	-576.31470	2755.27026	1664.34045	-605.70911	2306.24634	1662.11597	-637.82062	1851.71484	1661.82861	-661.41956	1349.20044	1661.63367	-690.48907	902.41852	1662.29761	-714.12653	454.43509	1663.80273	-1112.19812	2805.43091	1664.54272	-1138.78223	2354.21606	1648.55798	-1168.56592	1904.45837	1638.31409	-1196.30823	1404.16602	1637.36804	-1223.83813	953.36353	1648.76746	-1242.32520	507.41254	1667.07483	
5	0.020	-576.30768	2755.25171	1664.35254	-605.70404	2306.23560	1662.15637	-637.83618	1851.71790	1661.81653	-661.41779	1349.20703	1661.64685	-690.49976	902.40717	1662.28516	-714.11469	454.46204	1663.80103	-1112.18799	2805.43481	1664.55554	-1138.78601	2354.21851	1648.53662	-1168.62732	1904.51416	1638.30310	-1196.30725	1404.17822	1637.36328	-1223.84546	953.36298	1648.74963	-1242.33020	507.39270	1667.08508	
6	0.025	-576.29181	2755.26733	1664.33630	-605.68719	2306.25269	1662.13342	-637.80432	1851.70154	1661.81653	-661.35571	1349.24268	1661.61975	-690.47998	902.43323	1662.29724	-714.09155	454.42291	1663.81189	-1112.20496	2805.43774	1664.53210	-1138.79431	2354.23340	1648.54053	-1168.62451	1904.49255	1638.29321	-1196.31250	1404.19360	1637.32849	-1223.85681	953.36926	1648.73376	-1242.34290	507.40723	1667.08008	
7	0.030	-576.82306	2755.34570	1663.86035	-604.30756	2305.91211	1662.49878	-637.74176	1851.73804	1661.82874	-661.32477	1349.21887	1661.60510	-690.44592	902.41113	1662.27173	-714.08441	454.47067	1663.79907	-1112.18225	2805.44824	1664.53015	-1138.83032	2354.24683	1648.51440	-1168.62781	1904.50525	1638.27039	-1196.36084	1404.16992	1637.32251	-1223.86401	953.37848	1648.73547	-1242.35437	507.45163	1667.07678	
8	0.035	-576.80103	2755.34399	1663.88269	-604.30652	2305.95044	1662.48718	-637.69427	1851.71729	1661.81470	-661.27020	1349.25098	1661.62317	-690.41040	902.40253	1662.28723	-714.05194	454.46692	1663.79590	-1112.20947	2805.45215	1664.54822	-1138.82605	2354.27466	1648.53271	-1168.67896	1904.54675	1638.30493	-1196.35352	1404.17908	1637.35864	-1223.90723	953.37500	1648.75610	-1242.37988	507.44528	1667.07837	
9	0.040	-576.80054	2755.33472	1663.88342	-604.27087	2305.98486	1662.51318	-637.67242	1851.74597	1661.82935	-661.22278	1349.21863	1661.63098	-690.39844	902.45782	1662.27368	-714.03735	454.48325	1663.80359	-1112.19604	2805.46216	1664.55432	-1138.82922	2354.25732	1648.56091	-1168.65442	1904.54810	1638.32483	-1196.37109	1404.17725	1637.39478	-1223.89954	953.40033	1648.78064	-1242.39050	507.40875	1667.07715	
10	0.045	-576.26068	2755.30078	1664.33484	-605.60883	2306.26807	1662.13489	-637.64972	1851.70557	1661.84583	-661.18109	1349.23901	1661.64355	-690.37982	902.43518	1662.29517	-714.05731	454.46317	1663.81506	-1112.19861	2805.45972	1664.54480	-1138.84668	2354.26123	1648.57129	-1168.69458	1904.58008	1638.37561	-1196.41040	1404.19653	1637.45508	-1223.93335	953.37213	1648.83691	-1242.39233	507.43295	1667.08093	
11	0.050	-576.25519	2755.29028	1664.35107	-605.60724	2306.29736	1662.15442	-637.67908	1851.74084	1661.82410	-661.19580	1349.23999	1661.65808	-690.38037	902.39783	1662.26807	-714.03131	454.47113	1663.81799	-1112.19836	2805.43945	1664.56042	-1138.84229	2354.25171	1648.61328	-1168.64624	1904.52380	1638.42590	-1196.42151	1404.21387	1637.50537	-1223.92065	953.35925	1648.86011	-1242.41797	507.43832	1667.08313	
12	0.055	-576.83636	2755.35425	1663.87390	-604.24390	2305.95508	1662.50916	-637.66132	1851.71619	1661.83435	-661.21539	1349.22327	1661.65027	-690.40112	902.43488	1662.29382	-714.02747	454.46072	1663.80212	-1112.22131	2805.47583	1664.55505	-1138.87390	2354.24487	1648.64124	-1168.67908	1904.49487	1638.79907	-1196.43921	1404.22266	1637.59607	-1223.95654	953.33795	1648.91455	-1242.43225	507.38974	1667.07031	
13	0.060	-576.24170	2755.28711	1664.33691	-605.64520	2306.26270	1662.14209	-637.72125	1851.70264	1661.82544	-661.25311	1349.23840	1661.63782	-690.42810	902.44226	1662.27661	-714.05536	454.44919	1663.80103	-1112.21741	2805.45532	1664.53918	-1138.88782	2354.23730	1648.67688	-1168.74036	1904.50244	1638.84949	-1196.44739	1404.15076	1637.64758	-1223.97656	953.33289	1648.96606	-1242.42932	507.37692	1667.07275	
14	0.065	-576.81281	2755.34082	1663.85413	-604.34625	2305.93896	1662.50903	-637.74237	1851.73328	1661.83167	-661.30676	1349.22632	1661.63721	-690.44971	902.42743	1662.27393	-714.07373	454.44260	1663.80920	-1112.22058	2805.46655	1664.55615	-1138.87109	2354.24756	1648.70557	-1168.73035	1904.52087	1638.93616	-1196.47839	1404.13477	1637.71667	-1223.96460	953.33051	1649.03528	-1242.39355	507.37790	1667.07056	
15	0.070	-576.82147	2755.33569	1663.87622	-604.29529	2305.89697	1662.51611	-637.75568	1851.72156	1661.82507	-661.33630	1349.22144	1661.64136	-690.47760	902.42511	1662.28455	-714.09961	454.44702	1663.80481	-1112.21680	2805.48828	1664.55396	-1138.88489	2354.25879	1648.73792	-1168.72107	1904.52197	1638.97876	-1196.45459	1404.10730	1637.79321	-1223.96106	953.33588	1649.08142	-1242.42261	507.37048	1667.08032	
16	0.075	-576.83942	2755.33569	1663.87952	-604.37921	2305.96045	1662.49292	-637.82666	1851.72229	1661.83667	-661.38391	1349.19617	1661.64319	-690.49329	902.41284	1662.29175	-714.10211	454.43362	1663.81738	-1112.22522	2805.50171	1664.54834	-1138.86426	2354.25610	1648.80774	-1168.71326	1904.54578	1639.02441	-1196.42786	1404.11707	1637.85974	-1223.96826	953.31879	1649.14331	-1242.41455	507.37524	1667.08240	
17	0.080	-576.87054	2755.33301	1663.86682	-604.32776	2305.91406	1662.50757	-637.81165	1851.69263	1661.81458	-661.39154	1349.19153	1661.64185	-690.50037	902.40820	1662.27905	-714.11249	454.45715	1663.80835	-1112.22253	2805.52686	1664.54651	-1138.81091	2354.28491	1648.81213	-1168.70007	1904.55505	1639.04053	-1196.38757	1404.10291	1637.90894	-1223.90601	953.33740	1649.16870	-1242.40393	507.39697	1667.08679	
18	0.085	-576.83923	2755.30859	1663.87646	-604.39044	2305.89795	1662.50073	-637.83759	1851.66772	1661.82544	-661.39398	1349.18250	1661.62292	-690.49554	902.39990	1662.27039	-714.11206	454.45169	1663.80884	-1112.21741	2805.49951	1664.53979	-1138.84851	2354.27930	1648.84216	-1168.67261	1904.56323	1639.05383	-1196.37915	1404.10071	1637.94531	-1223.92151	953.33759	1649.17981	-1242.41028	507.41388	1667.06970	
19	0.090	-576.30774	2755.26392	1664.32776	-605.70599	2306.22388	1662.13757	-637.78870	1851.69702	1661.82104	-661.39465	1349.23511	1661.60938	-690.48926	902.39215	1662.28613	-714.10748	454.46262	1663.81128	-1112.21118	2805.53052	1664.54053	-1138.80359	2354.28979	1648.84619	-1168.65405	1904.59521	1639.05078	-1196.35852	1404.09790	1637.94312	-1223.90759	953.31561	1649.19653	-1242.40894	507.42624	1667.09790	
20	0.095	-576.83417	2755.32593	1663.85596	-604.33069	2305.90356	1662.50232	-637.75836	1851.67603	1661.84399	-661.34375	1349.23962	1661.61462	-690.46405	902.41675	1662.29541	-714.09344	454.45029	1663.80139	-1112.22852	2805.57202	1664.54578	-1138.78711	2354.29492	1648.84033	-1168.62695	1904.58960	1639.05347	-1196.33984	1404.14758	1637.93445	-1223.91174	953.36707	1649.18262	-1242.39087	507.42694	1667.07971	
21	0.100	-576.29431	2755.29150	1664.34216	-605.69189	2306.31982	1662.15405	-637.70685	1851.71265	1661.83411	-661.30640	1349.21338	1661.62488	-690.45673	902.39209	1662.28479	-714.07483	454.46872	1663.80505	-1112.21399	2805.54199	1664.54822	-1138.81165	2354.28369	1648.81299	-1168.61975	1904.58325	1639.02661	-1196.38098	1404.15576	1637.90259	-1223.91516	953.34857	1649.15417	-1242.40674	507.41162	1667.07288	
22	0.105	-576.81189	2755.34814	1663.85962	-604.28326	2305.96997	1662.50952	-637.72418	1851.72620	1661.83704	-661.26782	1349.25732	1661.61877	-690.41064	902.42780	1662.28613	-714.04376	454.47028	1663.80310	-1112.21667	2805.53271	1664.55017	-1138.80957	2354.27588	1648.77710	-1168.66663	1904.59155	1638.98462	-1196.38965	1404.15979	1637.81128	-1223.91077	953.34241	1649.10242	-1242.41077	507.42905	1667.09485	
23	0.110	-576.82947	2755.35107	1663.86328	-604.26971	2305.97046	1662.51184	-637.64661	1851.74097	1661.83130	-661.21350	1349.24414	1661.63757	-690.40558	902.43518	1662.28821	-714.04816	454.48260	1663.80811	-1112.20105	2805.50903	1664.53650	-1138.83813	2354.29468	1648.73425	-1168.66650	1904.53455	1638.94055	-1196.43945	1404.18103	1637.72559	-1223.94995	953.33313	1649.03186	-1242.42737	507.40533	1667.07068	
24	0.115	-576.80286	2755.37354	1663.87231	-604.26172	2305.94897	1662.51587	-637.64697	1851.74365	1661.82263	-661.17279	1349.27576	1661.64197	-690.38153	902.44672	1662.30078	-714.03760	454.45801	1663.81226	-1112.20520	2805.49438	1664.55518	-1138.87012	2354.27759	1648.67200	-1168.68140	1904.51563	1638.84827	-1196.43323	1404.18518	1637.61707	-1223.95581	953.36121	1648.95251	-1242.42126	507.40912	1667.06909	
